<svg xmlns="http://www.w3.org/2000/svg" viewBox="0 0 1024 1024"><g fill="#92278f"><path d="M894.6,216.1l-121-69.9l-67.5-39L578.2,33.5c-40.7-23.5-91.2-23.5-131.8,0l-123.5,71.3l-8.3,4.7l-59.2,34.2l-8.3,4.8l-115.6,66.7l-1.5,0.9c-40.6,23.5-65.9,67.2-65.9,114.2v365.3c0,46.9,25.2,90.7,65.9,114.1l1.5,0.9l123.8,71.5l67.5,39l123.5,71.3c20.3,11.8,43.1,17.6,65.9,17.6c22.8,0,45.6-5.9,65.9-17.6l128.5-74.2l67.5-39l120.3-69.5c8.5-4.9,16.2-10.6,23.3-17.1c17.8-16.4,30.8-37.4,37.4-60.6c3.4-11.7,5.2-23.9,5.2-36.4V330.3C960.5,283.3,935.2,239.6,894.6,216.1z M888.4,719.2c-2.9,7.3-7.1,14-12.4,19.7l-163.4,94.4c-4.9,2.9-11,3.2-16.2,0.9c-0.6-0.3-1.2-0.5-1.7-0.9l-166.9-96.4c-0.5-0.3-1-0.6-1.5-1c-4.7-3.3-7.5-8.8-7.5-14.5V528.7c0-6.4,3.4-12.3,9-15.5l166.9-96.4c2.7-1.6,5.9-2.4,9-2.4c2,0,4.1,0.3,6.1,1.1c1,0.3,2,0.8,2.9,1.3l166.9,96.4c0.9,0.5,1.8,1.1,2.5,1.8c4.1,3.3,6.4,8.3,6.4,13.7V719.2z M892.9,442.9l-146.6-84.6c-2.4-1.4-4.9-2.7-7.4-3.8l-0.2-0.1c-24.9-11.2-54-10-78,3.9l-25.2,14.5l-141.8,81.8c-26.4,15.2-42.8,43.6-42.8,74.1v192.8c0,28.5,14.4,55.2,37.9,71l0,0c1.6,1,3.2,2,4.8,3l145.1,83.8l-94.5,54.5c-19.8,11.5-44.4,11.5-64.2,0L322.9,843l-67.5-39l-91.6-52.9c-19.8-11.4-32.1-32.7-32.1-55.6V330.3c0-22.9,12.3-44.2,32.1-55.6l91.6-52.9l59.3-34.3l8.2-4.7l59.3-34.3l98-56.5c9.9-5.7,21-8.6,32.1-8.6c11.1,0,22.2,2.9,32.1,8.6l94,54.3l67.5,39l154.8,89.4c19.8,11.4,32.1,32.7,32.1,55.6V442.9z"/><path d="M806.9,549.3l-89.5-51.7c-8.6-5-19.1-5-27.7,0l-89.5,51.7c-8.6,5-13.9,14.1-13.9,24v103.4c0,9.9,5.3,19.1,13.9,24l89.5,51.7c8.6,5,19.1,5,27.7,0l89.5-51.7c8.6-5,13.9-14.1,13.9-24V573.4C820.8,563.5,815.5,554.3,806.9,549.3z"/><polygon points="440.9 260.3 322.9 328.4 255.4 367.4 255.4 657.6 322.9 696.6 322.9 406.4 508.4 299.3 575.9 260.3 508.4 221.3"/></g></svg>