<svg xmlns="http://www.w3.org/2000/svg" viewBox="0 0 1024 1024">
	<g>
		<circle fill="#92278f" cx="511.9" cy="512.6" r="499"/>
		<g fill="#ffffff">
			<path d="M796.7,291.4l-90.2-52.1l-50.3-29l-95.3-55c-30.3-17.5-67.9-17.5-98.2,0l-92,53.1l-6.2,3.5l-44.1,25.5l-6.2,3.6l-86.1,49.7l-1.2,0.7c-30.3,17.5-49.1,50.1-49.1,85.1v272.2c0,35,18.8,67.6,49.1,85l1.2,0.7l92.3,53.3l50.3,29l92,53.1c15.2,8.8,32.2,13.1,49.1,13.1s34-4.4,49.1-13.1l95.8-55.3l50.3-29l89.7-51.8c6.3-3.6,12.1-7.9,17.3-12.8c13.3-12.2,22.9-27.9,27.9-45.2c2.5-8.7,3.9-17.8,3.9-27.1V376.4C845.8,341.5,827,308.9,796.7,291.4z M792.1,666.3c-2.2,5.4-5.3,10.4-9.3,14.7L661,751.3c-3.7,2.1-8.2,2.4-12.1,0.7c-0.4-0.2-0.9-0.4-1.3-0.7l-124.4-71.8c-0.4-0.2-0.7-0.5-1.1-0.7c-3.5-2.5-5.6-6.5-5.6-10.8V524.3c0-4.8,2.5-9.2,6.7-11.6l124.4-71.8c2-1.2,4.4-1.8,6.7-1.8c1.5,0,3,0.3,4.5,0.8c0.7,0.3,1.5,0.6,2.2,1l124.4,71.8c0.7,0.4,1.3,0.8,1.9,1.4c3,2.5,4.8,6.2,4.8,10.2V666.3z M795.5,460.4l-109.2-63.1c-1.8-1-3.6-2-5.5-2.8l-0.1-0.1c-18.6-8.4-40.3-7.4-58.1,2.9l-18.8,10.8l-105.6,61c-19.6,11.4-31.9,32.5-31.9,55.2V668c0,21.2,10.7,41.2,28.2,52.9l0,0c1.2,0.8,2.4,1.5,3.6,2.2l108.1,62.4l-70.4,40.6c-14.8,8.5-33.1,8.5-47.9,0l-117.2-67.6l-50.3-29l-68.2-39.4c-14.8-8.5-23.9-24.4-23.9-41.4V376.4c0-17.1,9.1-32.9,23.9-41.4l68.2-39.4l44.2-25.5l6.1-3.5l44.2-25.5l73-42.1c7.4-4.3,15.6-6.4,23.9-6.4c8.3,0,16.6,2.1,23.9,6.4l70.1,40.5l50.3,29L771.5,335c14.8,8.5,23.9,24.4,23.9,41.4V460.4z"/>
			<path d="M731.4,539.7l-66.7-38.5c-6.4-3.7-14.3-3.7-20.7,0l-66.7,38.5c-6.4,3.7-10.3,10.5-10.3,17.9v77c0,7.4,3.9,14.2,10.3,17.9L644,691c6.4,3.7,14.3,3.7,20.7,0l66.7-38.5c6.4-3.7,10.3-10.5,10.3-17.9v-77C741.7,550.2,737.8,543.4,731.4,539.7z"/>
			<polygon points="458.6,324.3 370.7,375.1 320.4,404.1 320.4,620.4 370.7,649.4 370.7,433.2 508.9,353.4 559.3,324.3 508.9,295.3 		"/>
		</g>
	</g>
</svg>
