<?xml version="1.0" encoding="utf-8"?>
<!-- Generator: Adobe Illustrator 19.0.0, SVG Export Plug-In . SVG Version: 6.00 Build 0)  -->
<svg version="1.0" id="Layer_1" xmlns="http://www.w3.org/2000/svg" xmlns:xlink="http://www.w3.org/1999/xlink" x="0px" y="0px"
	 viewBox="0 0 1024 1024" style="enable-background:new 0 0 1024 1024;" xml:space="preserve">
<style type="text/css">
	.st0{fill:#92278F;}
</style>
<g id="XMLID_595_">
	<g id="XMLID_489_">
		<path id="XMLID_513_" class="st0" d="M93.1,720.7h45.5c27.1,0,40.6,12.3,40.6,36.9v161.3c0,24.6-13.5,36.9-40.6,36.9H93.1
			c-27.1,0-40.6-12.3-40.6-36.9V757.5C52.5,733,66,720.7,93.1,720.7z M136.3,912.9V763.5c0-4-0.7-6.6-2.2-8c-1.5-1.4-4.2-2-8.2-2
			h-19.7c-4.2,0-7.1,0.7-8.6,2c-1.5,1.4-2.2,4-2.2,8v149.4c0,4,0.7,6.6,2.2,8c1.5,1.4,4.3,2,8.6,2h19.7c4,0,6.7-0.7,8.2-2
			C135.6,919.5,136.3,916.9,136.3,912.9z"/>
		<path id="XMLID_510_" class="st0" d="M280.1,772.8h11.2c25.6,0,38.4,12.3,38.4,36.9v109.2c0,24.6-12.8,36.9-38.4,36.9h-11.2
			c-13.7,0-22.4-5.2-26.1-15.6v66.3h-42.1V772.8h41.7v16.8C257.1,778.4,266,772.8,280.1,772.8z M287.2,912.9v-97.2
			c0-4-0.7-6.6-2.2-8c-1.5-1.4-4.2-2-8.2-2h-11.2c-7.7,0-11.6,4.1-11.6,12.3v92.8c0,8.2,3.8,12.3,11.6,12.3h11.2c4,0,6.7-0.7,8.2-2
			C286.4,919.5,287.2,916.9,287.2,912.9z"/>
		<path id="XMLID_508_" class="st0" d="M429.9,805.6h-25v106.2c0,4,0.7,6.6,2.2,8c1.5,1.4,4.3,2.1,8.6,2.1h13.8v33.9h-26.1
			c-27.1,0-40.6-12.3-40.6-36.9V805.6h-18.3v-32.8h18.3V740h42.1v32.8h25V805.6z"/>
		<path id="XMLID_505_" class="st0" d="M448.5,743v-36.9h44.3V743H448.5z M491.7,955.7h-42.1V772.8h42.1V955.7z"/>
		<path id="XMLID_503_" class="st0" d="M590.1,915.5v-25.7c0-4-0.7-6.6-2.2-8c-1.5-1.4-4.3-2-8.6-2h-20.1
			c-26.6,0-39.9-12.2-39.9-36.5v-33.5c0-24.6,13.5-36.9,40.6-36.9h29.4c26.8,0,40.2,12.3,40.2,36.9v17.1h-40.6v-13.8
			c0-4-0.7-6.6-2.2-8c-1.5-1.4-4.2-2-8.2-2h-7.5c-4.2,0-7.1,0.7-8.6,2c-1.5,1.4-2.2,4-2.2,8v26.8c0,4,0.7,6.6,2.2,8
			c1.5,1.4,4.3,2,8.6,2h20.1c26.8,0,40.2,12.2,40.2,36.5v32.4c0,24.6-13.5,36.9-40.6,36.9h-30.2c-27.1,0-40.6-12.3-40.6-36.9v-16.8
			h41.4v13.4c0,4,0.7,6.6,2.2,8c1.5,1.4,4.2,2,8.2,2h7.5c4.2,0,7.1-0.7,8.6-2C589.3,922.2,590.1,919.5,590.1,915.5z"/>
		<path id="XMLID_495_" class="st0" d="M657.5,743v-36.9h44.3V743H657.5z M700.7,955.7h-42.1V772.8h42.1V955.7z"/>
		<path id="XMLID_493_" class="st0" d="M831.5,924.1v31.7H721.6v-31.7l64.1-119.6h-60v-31.7H830v31.7l-64.8,119.6H831.5z"/>
		<path id="XMLID_490_" class="st0" d="M891.1,772.8h39.5c26.8,0,40.2,12.3,40.2,36.9v66.7h-79.4V914c0,4,0.7,6.6,2,8
			c1.4,1.4,4.2,2,8.4,2H919c4,0,6.7-0.7,8.2-2c1.5-1.4,2.2-4,2.2-8v-13.8h41v18.6c0,24.6-13.5,36.9-40.6,36.9h-38.7
			c-27.1,0-40.6-12.3-40.6-36.9V809.7C850.5,785.1,864,772.8,891.1,772.8z M891.4,849.2h38.7v-35c0-4-0.7-6.6-2.2-8
			c-1.5-1.4-4.2-2-8.2-2h-17.9c-4,0-6.7,0.7-8.2,2c-1.5,1.4-2.2,4-2.2,8V849.2z"/>
	</g>
	<g id="XMLID_436_">
		<path id="XMLID_439_" class="st0" d="M749.7,144.1l-75.4-43.5l-42-24.3l-79.6-46c-25.3-14.6-56.8-14.6-82.1,0l-76.9,44.4l-5.1,3
			L351.7,99l-5.1,3l-72,41.6l-1,0.6c-25.3,14.6-41,41.9-41,71.1v227.5c0,29.2,15.7,56.5,41,71.1l1,0.6l77.1,44.5l42,24.3l76.9,44.4
			c12.7,7.3,26.9,11,41.1,11c14.2,0,28.4-3.7,41.1-11l80-46.2l42-24.3l75-43.3c5.3-3,10.1-6.6,14.5-10.7
			c11.1-10.2,19.2-23.3,23.3-37.7c2.1-7.3,3.2-14.9,3.2-22.7V215.2C790.8,185.9,775.1,158.7,749.7,144.1z M745.9,457.4
			c-1.8,4.5-4.4,8.7-7.7,12.3l-101.8,58.8c-3.1,1.8-6.9,2-10.1,0.6c-0.4-0.2-0.7-0.3-1.1-0.6l-104-60c-0.3-0.2-0.6-0.4-0.9-0.6
			c-2.9-2.1-4.7-5.5-4.7-9V338.7c0-4,2.1-7.7,5.6-9.7l104-60c1.7-1,3.7-1.5,5.6-1.5c1.3,0,2.5,0.2,3.8,0.7c0.6,0.2,1.2,0.5,1.8,0.8
			l103.9,60c0.6,0.3,1.1,0.7,1.6,1.1c2.5,2.1,4,5.2,4,8.5V457.4z M748.7,285.3l-91.3-52.7c-1.5-0.9-3-1.7-4.6-2.4l-0.1,0
			c-15.5-7-33.7-6.2-48.6,2.4l-15.7,9.1l-88.3,51c-16.4,9.5-26.6,27.2-26.6,46.1v120.1c0,17.7,9,34.4,23.6,44.2l0,0
			c1,0.6,2,1.3,3,1.9l90.4,52.2l-58.9,34c-12.3,7.1-27.7,7.1-40,0l-98-56.5l-42-24.3l-57-32.9c-12.4-7.1-20-20.4-20-34.6V215.2
			c0-14.3,7.6-27.5,20-34.6l57-32.9l36.9-21.3l5.1-2.9l36.9-21.3l61-35.2c6.2-3.6,13.1-5.3,20-5.3c6.9,0,13.8,1.8,20,5.3l58.6,33.8
			l42.1,24.3l96.4,55.7c12.3,7.1,20,20.4,20,34.6V285.3z"/>
		<path id="XMLID_441_" class="st0" d="M695.1,351.6l-55.7-32.2c-5.3-3.1-11.9-3.1-17.3,0l-55.7,32.2c-5.3,3.1-8.6,8.8-8.6,15v64.4
			c0,6.2,3.3,11.9,8.6,15l55.7,32.2c5.3,3.1,11.9,3.1,17.3,0l55.7-32.2c5.3-3.1,8.6-8.8,8.6-15v-64.4
			C703.8,360.4,700.5,354.7,695.1,351.6z"/>
		<polygon id="XMLID_488_" class="st0" points="467.2,171.6 393.7,214 351.7,238.3 351.7,419 393.7,443.3 393.7,262.6 509.2,195.9 
			551.3,171.6 509.2,147.3 		"/>
	</g>
</g>
</svg>
