<svg xmlns="http://www.w3.org/2000/svg" viewBox="0 0 1024 1024">
	<g fill="#92278f">
		<g>
			<path d="M395,432.8h31.1c18.5,0,27.8,8.4,27.8,25.3v110.4c0,16.8-9.3,25.3-27.8,25.3H395c-18.5,0-27.8-8.4-27.8-25.3V458C367.2,441.2,376.4,432.8,395,432.8z M424.6,564.4V462.1c0-2.7-0.5-4.5-1.5-5.5c-1-0.9-2.9-1.4-5.6-1.4h-13.5c-2.9,0-4.8,0.5-5.9,1.4c-1,0.9-1.5,2.8-1.5,5.5v102.3c0,2.7,0.5,4.6,1.5,5.5c1,0.9,3,1.4,5.9,1.4h13.5c2.7,0,4.6-0.5,5.6-1.4C424.1,568.9,424.6,567.1,424.6,564.4z"/>
			<path d="M523,468.5h7.7c17.5,0,26.3,8.4,26.3,25.2v74.7c0,16.8-8.8,25.3-26.3,25.3H523c-9.4,0-15.3-3.6-17.9-10.7v45.4h-28.8V468.5h28.6V480C507.3,472.3,513.3,468.5,523,468.5z M527.9,564.4v-66.6c0-2.7-0.5-4.5-1.5-5.5c-1-0.9-2.9-1.4-5.6-1.4h-7.7c-5.3,0-7.9,2.8-7.9,8.4v63.5c0,5.6,2.6,8.4,7.9,8.4h7.7c2.7,0,4.6-0.5,5.6-1.4C527.3,568.9,527.9,567.1,527.9,564.4z"/>
			<path d="M625.5,490.9h-17.1v72.7c0,2.7,0.5,4.6,1.5,5.5c1,0.9,3,1.4,5.9,1.4h9.4v23.2h-17.9c-18.5,0-27.8-8.4-27.8-25.3v-77.5h-12.5v-22.4h12.5V446h28.8v22.4h17.1V490.9z"/>
			<path d="M638.3,448.1v-25.2h30.4v25.2H638.3z M667.9,593.7h-28.8V468.5h28.8V593.7z"/>
			<path d="M735.2,566.2v-17.6c0-2.7-0.5-4.5-1.5-5.5c-1-0.9-3-1.4-5.9-1.4H714c-18.2,0-27.3-8.3-27.3-25v-23c0-16.8,9.3-25.2,27.8-25.2h20.2c18.4,0,27.5,8.4,27.5,25.2v11.7h-27.8V496c0-2.7-0.5-4.5-1.5-5.5c-1-0.9-2.9-1.4-5.6-1.4h-5.1c-2.9,0-4.8,0.5-5.9,1.4c-1,0.9-1.5,2.8-1.5,5.5v18.4c0,2.7,0.5,4.6,1.5,5.5c1,0.9,3,1.4,5.9,1.4H736c18.4,0,27.5,8.3,27.5,25v22.2c0,16.8-9.3,25.3-27.8,25.3h-20.7c-18.5,0-27.8-8.4-27.8-25.3V557h28.3v9.2c0,2.7,0.5,4.6,1.5,5.5c1,0.9,2.9,1.4,5.6,1.4h5.1c2.9,0,4.8-0.5,5.9-1.4C734.7,570.7,735.2,568.9,735.2,566.2z"/>
			<path d="M781.4,448.1v-25.2h30.4v25.2H781.4z M811,593.7h-28.8V468.5H811V593.7z"/>
			<path d="M900.5,572v21.7h-75.2V572l43.9-81.9H828v-21.7h71.4v21.7L855.1,572H900.5z"/>
			<path d="M941.3,468.5h27c18.4,0,27.5,8.4,27.5,25.2v45.7h-54.3v25.8c0,2.7,0.5,4.6,1.4,5.5c0.9,0.9,2.8,1.4,5.7,1.4h11.7c2.7,0,4.6-0.5,5.6-1.4c1-0.9,1.5-2.8,1.5-5.5v-9.4h28.1v12.8c0,16.8-9.3,25.3-27.8,25.3h-26.5c-18.5,0-27.8-8.4-27.8-25.3v-74.7C913.5,476.9,922.8,468.5,941.3,468.5z M941.5,520.8h26.5v-24c0-2.7-0.5-4.5-1.5-5.5c-1-0.9-2.9-1.4-5.6-1.4h-12.2c-2.7,0-4.6,0.5-5.6,1.4c-1,0.9-1.5,2.8-1.5,5.5V520.8z"/>
		</g>
		<g>
			<path d="M301.9,414.9l-40-23.1L239.7,379l-42.2-24.4c-13.4-7.8-30.1-7.8-43.5,0l-40.8,23.5l-2.7,1.6L90.9,391l-2.7,1.6l-38.2,22l-0.5,0.3c-13.4,7.7-21.7,22.2-21.7,37.7v120.6c0,15.5,8.3,29.9,21.7,37.7l0.5,0.3l40.9,23.6l22.3,12.9l40.8,23.5c6.7,3.9,14.2,5.8,21.8,5.8c7.5,0,15-1.9,21.8-5.8l42.4-24.5l22.3-12.9l39.7-22.9c2.8-1.6,5.4-3.5,7.7-5.7c5.9-5.4,10.2-12.3,12.4-20c1.1-3.9,1.7-7.9,1.7-12V452.6C323.7,437.1,315.4,422.6,301.9,414.9z M299.9,581c-1,2.4-2.3,4.6-4.1,6.5l-54,31.2c-1.6,0.9-3.6,1-5.3,0.3c-0.2-0.1-0.4-0.2-0.6-0.3l-55.1-31.8c-0.2-0.1-0.3-0.2-0.5-0.3c-1.5-1.1-2.5-2.9-2.5-4.8v-63.6c0-2.1,1.1-4.1,3-5.1l55.1-31.8c0.9-0.5,1.9-0.8,3-0.8c0.7,0,1.4,0.1,2,0.4c0.3,0.1,0.6,0.3,1,0.4l55.1,31.8c0.3,0.2,0.6,0.4,0.8,0.6c1.3,1.1,2.1,2.8,2.1,4.5V581z M301.4,489.8L253,461.8c-0.8-0.5-1.6-0.9-2.4-1.2l-0.1,0c-8.2-3.7-17.8-3.3-25.7,1.3l-8.3,4.8l-46.8,27c-8.7,5-14.1,14.4-14.1,24.5v63.6c0,9.4,4.8,18.2,12.5,23.4l0,0c0.5,0.3,1,0.7,1.6,1l47.9,27.7l-31.2,18c-6.5,3.8-14.7,3.8-21.2,0l-51.9-30L90.9,609l-30.2-17.5c-6.5-3.8-10.6-10.8-10.6-18.4V452.6c0-7.6,4.1-14.6,10.6-18.4l30.2-17.5l19.6-11.3l2.7-1.6l19.6-11.3l32.3-18.7c3.3-1.9,6.9-2.8,10.6-2.8c3.7,0,7.3,0.9,10.6,2.8l31,17.9l22.3,12.9l51.1,29.5c6.5,3.8,10.6,10.8,10.6,18.4V489.8z"/>
			<path d="M273,524.9l-29.5-17.1c-2.8-1.6-6.3-1.6-9.2,0l-29.5,17.1c-2.8,1.6-4.6,4.7-4.6,7.9v34.1c0,3.3,1.7,6.3,4.6,7.9l29.5,17.1c2.8,1.6,6.3,1.6,9.2,0l29.5-17.1c2.8-1.6,4.6-4.7,4.6-7.9v-34.1C277.6,529.6,275.8,526.5,273,524.9z"/>
			<polygon points="152.2,429.5 113.2,452 90.9,464.8 90.9,560.6 113.2,573.5 113.2,477.7 174.4,442.4 196.7,429.5 174.4,416.6"/>
		</g>
	</g>
</svg>
