<?xml version="1.0" encoding="utf-8"?>
<!-- Generator: Adobe Illustrator 19.0.0, SVG Export Plug-In . SVG Version: 6.00 Build 0)  -->
<svg version="1.0" id="Layer_1" xmlns="http://www.w3.org/2000/svg" xmlns:xlink="http://www.w3.org/1999/xlink" x="0px" y="0px"
	 viewBox="0 0 1024 1024" style="enable-background:new 0 0 1024 1024;" xml:space="preserve">
<style type="text/css">
	.st0{fill:#92278F;}
	.st1{fill:#FFFFFF;}
</style>
<g id="XMLID_586_">
	<path id="XMLID_594_" class="st0" d="M1007.5,227.7v569.7c0,115.9-94.8,210.7-210.7,210.7H227.2c-115.9,0-210.7-94.8-210.7-210.7
		V227.7C16.5,111.8,111.3,17,227.2,17h569.6C912.7,17,1007.5,111.8,1007.5,227.7z"/>
	<g id="XMLID_587_">
		<path id="XMLID_590_" class="st1" d="M804.1,285.8l-92.5-53.4L660,202.6l-97.7-56.4c-31.1-18-69.6-18-100.7,0l-94.3,54.5l-6.3,3.6
			l-45.3,26.1l-6.3,3.7l-88.3,51l-1.2,0.7c-31,17.9-50.3,51.4-50.3,87.2v279.1c0,35.9,19.3,69.3,50.3,87.2l1.2,0.7l94.6,54.6
			l51.6,29.8l94.3,54.5c15.5,9,33,13.5,50.4,13.5c17.4,0,34.8-4.5,50.4-13.5l98.2-56.7l51.6-29.8l91.9-53.1
			c6.5-3.7,12.4-8.1,17.8-13.1c13.6-12.5,23.5-28.6,28.6-46.3c2.6-8.9,4-18.3,4-27.8V373C854.4,337.2,835.1,303.7,804.1,285.8z
			 M799.3,670.1c-2.2,5.5-5.4,10.7-9.5,15.1l-124.9,72.1c-3.8,2.2-8.4,2.4-12.4,0.7c-0.4-0.2-0.9-0.4-1.3-0.7l-127.5-73.6
			c-0.4-0.2-0.8-0.5-1.1-0.7c-3.6-2.5-5.7-6.7-5.7-11.1V524.6c0-4.9,2.6-9.4,6.8-11.9l127.5-73.6c2.1-1.2,4.5-1.8,6.8-1.8
			c1.6,0,3.1,0.3,4.6,0.8c0.8,0.3,1.5,0.6,2.2,1l127.5,73.6c0.7,0.4,1.4,0.9,1.9,1.4c3.1,2.5,4.9,6.4,4.9,10.5V670.1z M802.8,459.1
			l-112-64.7c-1.9-1.1-3.7-2-5.6-2.9l-0.1-0.1c-19-8.6-41.3-7.6-59.6,2.9l-19.2,11.1L497.9,468c-20.1,11.6-32.7,33.3-32.7,56.6
			v147.3c0,21.8,11,42.2,29,54.2l0,0c1.2,0.8,2.4,1.6,3.7,2.3l110.8,64l-72.2,41.7c-15.1,8.8-33.9,8.8-49.1,0l-120.2-69.4L315.7,735
			l-70-40.4c-15.2-8.7-24.5-25-24.5-42.5V373c0-17.5,9.4-33.8,24.5-42.5l70-40.4l45.3-26.2l6.3-3.6l45.3-26.2l74.8-43.2
			c7.6-4.4,16-6.5,24.5-6.5c8.5,0,17,2.2,24.5,6.5l71.8,41.5l51.6,29.8l118.3,68.3c15.1,8.7,24.5,25,24.5,42.5V459.1z"/>
		<path id="XMLID_589_" class="st1" d="M737.1,540.4l-68.4-39.5c-6.6-3.8-14.6-3.8-21.2,0l-68.4,39.5c-6.6,3.8-10.6,10.8-10.6,18.3
			v79c0,7.6,4,14.6,10.6,18.3l68.4,39.5c6.6,3.8,14.6,3.8,21.2,0l68.4-39.5c6.6-3.8,10.6-10.8,10.6-18.3v-79
			C747.7,551.2,743.6,544.2,737.1,540.4z"/>
		<polygon id="XMLID_588_" class="st1" points="457.4,319.6 367.3,371.6 315.7,401.4 315.7,623.1 367.3,652.9 367.3,431.2 
			509,349.4 560.6,319.6 509,289.8 		"/>
	</g>
</g>
</svg>
